<svg xmlns="http://www.w3.org/2000/svg" width="29" height="29">
    <g data-name="Group 189">
        <path data-name="Rectangle 47" fill="#22b6c1" d="M0 0h15v15H0z"/>
        <path data-name="Rectangle 48" fill="#22b6c1" d="M15 15h14v14H15z"/>
        <path data-name="Path 1161" d="M23.544 26h-1.66v-4.544l.016-.747.027-.816q-.414.414-.575.542l-.9.725-.8-1 2.528-2.013h1.364Z" fill="#081c52"/>
        <path data-name="Path 1163" d="M10.93 11H5.44V9.845l1.972-1.992q.875-.9 1.144-1.243a2.735 2.735 0 0 0 .387-.642 1.634 1.634 0 0 0 .118-.612.892.892 0 0 0-.26-.7 1.01 1.01 0 0 0-.7-.231 2 2 0 0 0-.886.209 4.574 4.574 0 0 0-.9.6l-.9-1.069a5.887 5.887 0 0 1 .961-.7 3.529 3.529 0 0 1 .833-.314 4.266 4.266 0 0 1 1.01-.11 2.99 2.99 0 0 1 1.3.269 2.074 2.074 0 0 1 .875.752 2 2 0 0 1 .312 1.106 2.708 2.708 0 0 1-.191 1.018 3.908 3.908 0 0 1-.591.975 14.444 14.444 0 0 1-1.41 1.423l-1.01.951V9.6h3.426Z" fill="#081c52"/>
        <path data-name="Path 1162" d="M24.624 4.9a1.848 1.848 0 0 1-.446 1.251 2.311 2.311 0 0 1-1.251.709v.04a2.5 2.5 0 0 1 1.439.577 1.617 1.617 0 0 1 .489 1.238 2.1 2.1 0 0 1-.822 1.761 3.788 3.788 0 0 1-2.347.631 5.7 5.7 0 0 1-2.267-.424V9.271a5.123 5.123 0 0 0 1 .376 4.226 4.226 0 0 0 1.085.145 2.11 2.11 0 0 0 1.214-.279 1.025 1.025 0 0 0 .392-.9.81.81 0 0 0-.451-.784 3.338 3.338 0 0 0-1.435-.229h-.6V6.327h.607a2.823 2.823 0 0 0 1.335-.239.863.863 0 0 0 .422-.819q0-.892-1.117-.892a2.557 2.557 0 0 0-.787.129 3.844 3.844 0 0 0-.889.446l-.765-1.144a4.268 4.268 0 0 1 2.562-.773 3.308 3.308 0 0 1 1.926.494 1.585 1.585 0 0 1 .706 1.371Z" fill="#081c52"/>
        <path data-name="Path 1160" d="M8.147 18.045a2.974 2.974 0 0 1 1.818.513 1.634 1.634 0 0 1 .69 1.383 1.808 1.808 0 0 1-.333 1.072 2.837 2.837 0 0 1-1.074.841 3.807 3.807 0 0 1 1.265.986 1.836 1.836 0 0 1 .387 1.124 1.872 1.872 0 0 1-.76 1.555 3.159 3.159 0 0 1-1.993.588 3.325 3.325 0 0 1-2.024-.547 1.821 1.821 0 0 1-.736-1.553 2.058 2.058 0 0 1 .357-1.192 2.967 2.967 0 0 1 1.147-.915 2.942 2.942 0 0 1-.967-.908 1.991 1.991 0 0 1-.3-1.058 1.624 1.624 0 0 1 .7-1.364 2.967 2.967 0 0 1 1.823-.525Zm-1.224 5.866a.87.87 0 0 0 .322.72 1.372 1.372 0 0 0 .881.258 1.378 1.378 0 0 0 .924-.266.883.883 0 0 0 .306-.7.959.959 0 0 0-.3-.674 3.9 3.9 0 0 0-.986-.669q-1.147.52-1.147 1.331Zm1.214-4.652a1.033 1.033 0 0 0-.685.218.72.72 0 0 0-.26.583.893.893 0 0 0 .207.577 2.273 2.273 0 0 0 .749.524 2.1 2.1 0 0 0 .736-.5.918.918 0 0 0 .209-.6.71.71 0 0 0-.269-.585 1.066 1.066 0 0 0-.687-.217Z" fill="#081c52"/>
    </g>
</svg>
