<svg xmlns="http://www.w3.org/2000/svg" width="28.748" height="25.905">
    <g data-name="Group 206">
        <path data-name="Path 1152" d="M11.776 11.697h.5a1.9 1.9 0 0 0 1.078-.243.869.869 0 0 0 .348-.765.794.794 0 0 0-.355-.735 2.155 2.155 0 0 0-1.1-.218h-.471Zm0 1.251v2.786h-1.54v-7.26h2.116a3.621 3.621 0 0 1 2.19.539 1.923 1.923 0 0 1 .71 1.636 1.926 1.926 0 0 1-.353 1.14 2.333 2.333 0 0 1-1 .782q1.641 2.448 2.137 3.163h-1.708l-1.733-2.785Z" fill="#32449c"/>
        <path data-name="Path 1150" d="M24.054 7.259h-1.539V1.281h-1.972V0h5.482v1.281h-1.971Z" fill="#22b6c1"/>
        <path data-name="Path 1151" d="M3.173 3.836 4.688.847h1.658L3.938 5.281v2.826h-1.53V5.331L0 .847h1.668Z" fill="#32449c"/>
        <path data-name="Path 1149" d="M24.488 21.867h.5a1.9 1.9 0 0 0 1.078-.243.869.869 0 0 0 .348-.765.794.794 0 0 0-.355-.735 2.155 2.155 0 0 0-1.1-.218h-.471Zm0 1.251v2.786h-1.54v-7.26h2.116a3.621 3.621 0 0 1 2.19.539 1.923 1.923 0 0 1 .71 1.636 1.926 1.926 0 0 1-.353 1.14 2.333 2.333 0 0 1-1 .782q1.641 2.448 2.137 3.163H27.04l-1.733-2.785Z" fill="#ff1614"/>
        <g data-name="Ellipse 53" transform="translate(6.346 5.566)" fill="none" stroke="#21b6c1">
            <circle cx="6.5" cy="6.5" r="6.5" stroke="none"/>
            <circle cx="6.5" cy="6.5" r="6"/>
        </g>
    </g>
</svg>
