<svg xmlns="http://www.w3.org/2000/svg" width="31.931" height="16.29">
    <g data-name="Group 208">
        <path data-name="Path 1157" d="M3.027 3.232h2.832v3.7a7.984 7.984 0 0 1-1.3.315 8.444 8.444 0 0 1-1.24.094 3.144 3.144 0 0 1-2.468-.95A3.951 3.951 0 0 1 0 3.662a3.6 3.6 0 0 1 .989-2.7 3.754 3.754 0 0 1 2.742-.967A5.3 5.3 0 0 1 5.85.441l-.5 1.211a3.592 3.592 0 0 0-1.631-.392 2.008 2.008 0 0 0-1.572.659 2.557 2.557 0 0 0-.589 1.772 2.847 2.847 0 0 0 .476 1.775 1.647 1.647 0 0 0 1.385.613 4.9 4.9 0 0 0 .962-.1V4.492H3.027Zm6.045.039h.488a1.868 1.868 0 0 0 1.06-.239.854.854 0 0 0 .342-.752.781.781 0 0 0-.349-.723 2.119 2.119 0 0 0-1.082-.216h-.459Zm0 1.23v2.74H7.559V.102h2.08a3.56 3.56 0 0 1 2.153.53 1.891 1.891 0 0 1 .698 1.609 1.894 1.894 0 0 1-.347 1.121 2.294 2.294 0 0 1-.981.769q1.611 2.41 2.1 3.11h-1.68l-1.7-2.739Zm9.2 2.74H14.16V.102h4.111v1.239h-2.6v1.567h2.417v1.24h-2.414v1.843h2.6Zm5.6 0h-4.111V.102h4.111v1.239h-2.6v1.567h2.417v1.24h-2.415v1.843h2.6Zm7.822 0h-1.923l-3.106-5.4h-.046q.093 1.431.093 2.041v3.359h-1.351V.102h1.909l3.1 5.347h.034q-.073-1.392-.073-1.968V.102h1.362Z" fill="#ff1614"/>
        <path data-name="Path 1159" d="M2.219 14.241h1.42v1.846a3.992 3.992 0 0 1-.648.154 4.222 4.222 0 0 1-.621.045 1.572 1.572 0 0 1-1.234-.471 1.975 1.975 0 0 1-.426-1.364 1.8 1.8 0 0 1 .494-1.347 1.877 1.877 0 0 1 1.371-.483 2.652 2.652 0 0 1 1.06.22l-.252.6a1.8 1.8 0 0 0-.813-.2 1 1 0 0 0-.786.33 1.278 1.278 0 0 0-.3.886 1.423 1.423 0 0 0 .238.887.824.824 0 0 0 .697.316 2.448 2.448 0 0 0 .48-.049v-.745h-.68Zm3.022.02h.244a.934.934 0 0 0 .534-.12.427.427 0 0 0 .171-.376.391.391 0 0 0-.171-.366 1.059 1.059 0 0 0-.541-.107h-.232Zm0 .615v1.365h-.752v-3.569h1.04a1.78 1.78 0 0 1 1.077.269.945.945 0 0 1 .349.8.947.947 0 0 1-.173.56 1.147 1.147 0 0 1-.491.385q.805 1.203 1.049 1.555H6.5l-.852-1.37Zm4.604 1.365H7.79v-3.569h2.055v.62h-1.3v.784h1.21v.62H8.546v.92h1.3Zm2.8 0H10.59v-3.569h2.056v.62h-1.3v.784h1.208v.62h-1.207v.92h1.3Zm3.911 0h-.962l-1.552-2.7h-.023q.046.715.046 1.021v1.679h-.676v-3.569h.955l1.551 2.669h.017q-.037-.7-.037-.984v-1.685h.681Z" fill="#081c52"/>
        <path data-name="Path 1158" d="M23.625 14.256h.244a.934.934 0 0 0 .53-.12.427.427 0 0 0 .171-.376.391.391 0 0 0-.175-.361 1.059 1.059 0 0 0-.541-.107h-.229Zm0 .615v1.37h-.757v-3.569h1.04a1.78 1.78 0 0 1 1.077.269.945.945 0 0 1 .349.8.947.947 0 0 1-.173.56 1.147 1.147 0 0 1-.491.385q.806 1.203 1.049 1.555h-.84l-.851-1.37Zm4.6 1.37h-2.056v-3.569h2.056v.62h-1.3v.784h1.209v.62h-1.208v.92h1.3Zm3.706-1.819a1.758 1.758 0 0 1-.5 1.35 2.046 2.046 0 0 1-1.451.469h-1.011v-3.569h1.121a1.887 1.887 0 0 1 1.357.461 1.7 1.7 0 0 1 .484 1.289Zm-.786.02q0-1.15-1.016-1.15h-.4v2.324h.325q1.091 0 1.091-1.175Z" fill="#081c52"/>
    </g>
</svg>
