<svg xmlns="http://www.w3.org/2000/svg" width="32.933" height="32.933">
    <g data-name="Group 195" transform="translate(-81 -476)">
        <path data-name="Path 1106" d="m81.005 491.905.656 5.2a.708.708 0 0 0 .695.619c1.041.011 2.117 0 3.277-.048a12.735 12.735 0 0 0 1.324 2.329 69.214 69.214 0 0 0-1.709 2.793.708.708 0 0 0 .179.913l4.14 3.209a.708.708 0 0 0 .929-.053c.747-.732 1.5-1.509 2.3-2.366a12.74 12.74 0 0 0 2.582.689c.223 1.046.471 2.124.752 3.212a.707.707 0 0 0 .774.525l5.2-.656a.708.708 0 0 0 .619-.7c0-1.143-.026-2.267-.071-3.352a12.755 12.755 0 0 0 2.27-1.318c.917.6 1.877 1.2 2.868 1.782a.708.708 0 0 0 .919-.176l3.213-4.14a.708.708 0 0 0-.058-.934 78.562 78.562 0 0 0-2.482-2.377 12.753 12.753 0 0 0 .66-2.465 76.941 76.941 0 0 0 3.363-.784.708.708 0 0 0 .525-.774l-.656-5.2a.707.707 0 0 0-.7-.619c-1.187 0-2.353.029-3.477.077a12.739 12.739 0 0 0-1.25-2.19 78.993 78.993 0 0 0 1.838-2.954.709.709 0 0 0-.175-.919l-4.14-3.213a.708.708 0 0 0-.934.058 76.333 76.333 0 0 0-2.39 2.5 12.779 12.779 0 0 0-2.432-.682c-.259-1.2-.523-2.3-.806-3.361a.709.709 0 0 0-.772-.52l-5.2.656a.707.707 0 0 0-.619.695 67.532 67.532 0 0 0 .052 3.4 12.761 12.761 0 0 0-2.243 1.256 67.88 67.88 0 0 0-2.882-1.766.709.709 0 0 0-.914.179l-3.213 4.14a.708.708 0 0 0 .053.929 68.878 68.878 0 0 0 2.382 2.312 12.762 12.762 0 0 0-.713 2.547c-1.144.248-2.2.5-3.211.773a.709.709 0 0 0-.523.774Zm8.886 1.52a7.635 7.635 0 0 1 6.619-8.53 7.635 7.635 0 0 1 8.53 6.619 7.634 7.634 0 0 1-6.619 8.53 7.635 7.635 0 0 1-8.529-6.622Z" fill="#32449c"/>
        <circle data-name="Ellipse 56" cx="3.5" cy="3.5" r="3.5" transform="translate(94 489)" fill="#22b6c1"/>
    </g>
</svg>
