<svg xmlns="http://www.w3.org/2000/svg" xmlns:xlink="http://www.w3.org/1999/xlink" viewBox="0 0 495 219.58">
    <defs>
        <linearGradient id="New_Gradient_Swatch" data-name="New Gradient Swatch" x1="51.62" y1="95.13" x2="63.21" y2="58.72" gradientUnits="userSpaceOnUse">
            <stop offset="0" stop-color="#f3f3f9"/>
            <stop offset=".23" stop-color="#eae9f4"/>
            <stop offset=".61" stop-color="#d1d1e8"/>
            <stop offset="1" stop-color="#b2b1d9"/>
        </linearGradient>
        <linearGradient id="New_Gradient_Swatch-2" data-name="New Gradient Swatch" x1="152.56" y1="85.87" x2="82.9" y2="162.89" xlink:href="#New_Gradient_Swatch"/>
        <linearGradient id="New_Gradient_Swatch-3" data-name="New Gradient Swatch" x1="171.19" y1="13.74" x2="98.13" y2="87.36" xlink:href="#New_Gradient_Swatch"/>
        <linearGradient id="New_Gradient_Swatch-4" data-name="New Gradient Swatch" x1="76.84" y1="46.07" x2="43.99" y2="100.44" xlink:href="#New_Gradient_Swatch"/>
    </defs>
    <g id="Layer_1" data-name="Layer 1">
        <path fill="#fff" d="M199.68 65.11c4.48 0 8 1.75 10.53 5.25 2.54 3.5 3.81 8.3 3.81 14.39s-1.31 11.13-3.92 14.58c-2.62 3.44-6.18 5.16-10.69 5.16s-7.96-1.62-10.5-4.86h-.71l-1.73 4.18h-7.92V50.95h10.36v12.3c0 1.56-.14 4.07-.41 7.51h.41c2.42-3.76 6.01-5.64 10.77-5.64Zm-3.33 8.29c-2.56 0-4.43.79-5.61 2.36-1.18 1.57-1.79 4.17-1.83 7.8v1.12c0 4.08.61 7 1.82 8.77 1.21 1.77 3.13 2.65 5.76 2.65 2.13 0 3.82-.98 5.08-2.94 1.26-1.96 1.89-4.81 1.89-8.54s-.63-6.54-1.9-8.41-3-2.8-5.2-2.8ZM243.78 65.11c1.4 0 2.57.1 3.5.31l-.78 9.72c-.84-.23-1.86-.34-3.06-.34-3.31 0-5.88.85-7.73 2.55-1.85 1.7-2.77 4.08-2.77 7.13v19.33h-10.36V65.83h7.85l1.53 6.39h.51c1.18-2.13 2.77-3.84 4.77-5.15 2-1.3 4.18-1.95 6.54-1.95ZM278.3 103.81l-2-5.16h-.27c-1.74 2.2-3.54 3.72-5.39 4.57-1.85.85-4.25 1.27-7.22 1.27-3.65 0-6.52-1.04-8.61-3.13-2.1-2.08-3.14-5.05-3.14-8.9s1.41-7 4.23-8.92c2.82-1.91 7.07-2.97 12.76-3.18l6.59-.2v-1.67c0-3.85-1.97-5.78-5.91-5.78-3.04 0-6.6.92-10.7 2.75l-3.43-7c4.37-2.29 9.22-3.43 14.54-3.43s9 1.11 11.72 3.33c2.72 2.22 4.08 5.59 4.08 10.12v25.31h-7.24Zm-3.06-17.6-4.01.14c-3.01.09-5.25.63-6.73 1.63-1.47 1-2.21 2.51-2.21 4.55 0 2.92 1.68 4.38 5.03 4.38 2.4 0 4.32-.69 5.76-2.07 1.44-1.38 2.16-3.22 2.16-5.5v-3.12ZM295.76 56.01c0-3.38 1.88-5.06 5.64-5.06s5.64 1.69 5.64 5.06c0 1.61-.47 2.86-1.41 3.75-.94.89-2.35 1.34-4.23 1.34-3.76 0-5.64-1.7-5.64-5.1Zm10.8 47.8H296.2V65.83h10.36v37.98ZM352.5 103.81h-10.36V81.62c0-2.74-.49-4.8-1.46-6.17s-2.53-2.06-4.65-2.06c-2.9 0-4.99.97-6.29 2.91-1.29 1.94-1.94 5.15-1.94 9.63v17.87h-10.36V65.82h7.92l1.39 4.86h.58c1.15-1.83 2.75-3.22 4.77-4.16 2.03-.94 4.33-1.41 6.91-1.41 4.42 0 7.77 1.2 10.06 3.58 2.29 2.39 3.43 5.84 3.43 10.34v24.77ZM194.55 165.82c1.81 0 3.99-.4 6.52-1.19v7.71c-2.58 1.15-5.75 1.73-9.51 1.73-4.15 0-7.16-1.05-9.05-3.14-1.89-2.09-2.84-5.24-2.84-9.43v-18.31h-4.96v-4.38l5.71-3.47 2.99-8.02h6.62v8.09h10.63v7.78h-10.63v18.31c0 1.47.41 2.56 1.24 3.26.83.7 1.92 1.05 3.28 1.05ZM243.27 154.33c0 6.18-1.63 11.02-4.89 14.51s-7.8 5.23-13.62 5.23c-3.65 0-6.86-.8-9.65-2.4-2.79-1.6-4.93-3.89-6.42-6.88-1.5-2.99-2.24-6.48-2.24-10.46 0-6.21 1.62-11.03 4.86-14.47 3.24-3.44 7.79-5.16 13.66-5.16 3.65 0 6.86.79 9.65 2.38 2.79 1.58 4.93 3.86 6.42 6.83 1.49 2.97 2.24 6.44 2.24 10.43Zm-26.26 0c0 3.76.62 6.6 1.85 8.53 1.23 1.93 3.24 2.89 6.03 2.89s4.75-.96 5.96-2.87c1.21-1.91 1.82-4.76 1.82-8.54s-.61-6.58-1.83-8.46c-1.22-1.88-3.23-2.82-6.01-2.82s-4.76.93-5.98 2.8c-1.22 1.87-1.83 4.69-1.83 8.48ZM286.35 154.33c0 6.18-1.63 11.02-4.89 14.51s-7.8 5.23-13.62 5.23c-3.65 0-6.86-.8-9.65-2.4-2.79-1.6-4.93-3.89-6.42-6.88-1.5-2.99-2.24-6.48-2.24-10.46 0-6.21 1.62-11.03 4.86-14.47 3.24-3.44 7.79-5.16 13.66-5.16 3.65 0 6.86.79 9.65 2.38 2.79 1.58 4.93 3.86 6.42 6.83 1.49 2.97 2.24 6.44 2.24 10.43Zm-26.27 0c0 3.76.62 6.6 1.85 8.53 1.23 1.93 3.24 2.89 6.03 2.89s4.75-.96 5.96-2.87c1.21-1.91 1.82-4.76 1.82-8.54s-.61-6.58-1.83-8.46c-1.22-1.88-3.23-2.82-6.01-2.82s-4.76.93-5.98 2.8c-1.22 1.87-1.83 4.69-1.83 8.48ZM305.27 173.39h-10.36v-52.86h10.36v52.86ZM344.17 152.74l4.52-5.78 10.63-11.55h11.69l-15.08 16.48 16 21.51h-11.96l-10.94-15.39-4.45 3.57v11.82h-10.36v-52.86h10.36v23.58l-.54 8.63h.14ZM376.92 125.59c0-3.38 1.88-5.06 5.64-5.06s5.64 1.69 5.64 5.06c0 1.61-.47 2.86-1.41 3.75-.94.89-2.35 1.34-4.23 1.34-3.76 0-5.64-1.7-5.64-5.1Zm10.81 47.8h-10.36v-37.98h10.36v37.98ZM414.6 165.82c1.81 0 3.99-.4 6.52-1.19v7.71c-2.58 1.15-5.75 1.73-9.51 1.73-4.14 0-7.16-1.05-9.05-3.14-1.89-2.09-2.84-5.24-2.84-9.43v-18.31h-4.96v-4.38l5.71-3.47 2.99-8.02h6.62v8.09h10.63v7.78h-10.63v18.31c0 1.47.41 2.56 1.24 3.26.83.7 1.92 1.05 3.28 1.05Z"/>
        <circle cx="101.28" cy="142.57" r="7.8" fill="#9fc63b"/>
        <path d="M53.03 76.66a4.624 4.624 0 0 0 .53 6.51 4.624 4.624 0 0 0 6.51-.53 4.624 4.624 0 0 0-.53-6.51 4.624 4.624 0 0 0-6.51.53" style="fill:url(#New_Gradient_Swatch)"/>
        <path d="M119.14 57.59a6.07 6.07 0 0 0 .7 8.56 6.07 6.07 0 0 0 8.56-.7 6.07 6.07 0 0 0-.7-8.56 6.07 6.07 0 0 0-8.56.7" fill="#23b6c1"/>
        <path d="M56.83 135.41v14.33c0 .97.71 1.79 1.67 1.92 2.82.39 5.74.71 8.9.99.7 2.37 1.64 4.64 2.79 6.77-2.04 2.43-3.87 4.73-5.59 6.99-.59.77-.51 1.85.17 2.54l10.13 10.13c.68.68 1.77.76 2.54.17 2.28-1.73 4.59-3.58 7.04-5.63 2.13 1.14 4.4 2.07 6.77 2.75.25 2.91.55 5.92.94 8.97.12.97.95 1.69 1.92 1.69h14.33c.97 0 1.8-.72 1.92-1.69.4-3.1.7-6.16.95-9.12 2.31-.71 4.52-1.65 6.61-2.8 2.28 1.93 4.68 3.89 7.17 5.81.77.6 1.86.53 2.55-.16l10.13-10.13c.69-.69.76-1.78.16-2.55-1.96-2.54-3.96-4.97-5.92-7.3 1.08-2.04 1.97-4.2 2.63-6.46 3.05-.25 6.19-.57 9.39-.98.97-.12 1.69-.95 1.69-1.92V135.4c0-.97-.72-1.8-1.69-1.92-3.22-.41-6.39-.73-9.46-.98-.67-2.22-1.56-4.35-2.64-6.37 1.99-2.35 4.01-4.82 6-7.38.6-.77.53-1.86-.16-2.55l-10.13-10.13c-.69-.69-1.78-.76-2.55-.16-2.55 1.97-5 3.98-7.34 5.96a35.354 35.354 0 0 0-6.36-2.68c-.29-3.35-.63-6.43-1.04-9.39-.13-.96-.95-1.67-1.92-1.67H94.1c-.97 0-1.79.71-1.92 1.67-.4 2.92-.73 5.95-1.02 9.25-2.28.66-4.45 1.55-6.51 2.64a186.29 186.29 0 0 0-7.21-5.78c-.77-.59-1.85-.51-2.54.17l-10.13 10.13c-.68.68-.76 1.77-.17 2.54 1.74 2.29 3.6 4.62 5.67 7.08-1.15 2.1-2.1 4.33-2.81 6.66-3.19.28-6.13.61-8.97 1-.96.13-1.67.95-1.67 1.92Zm23.58 7.16c0-11.53 9.34-20.87 20.87-20.87 11.53 0 20.87 9.34 20.87 20.87 0 11.53-9.34 20.87-20.87 20.87-11.53 0-20.87-9.34-20.87-20.87Z" style="fill:url(#New_Gradient_Swatch-2)"/>
        <path d="m89.36 56.69.22 11.06c.02.75.58 1.37 1.32 1.45 2.18.25 4.44.46 6.89.63.58 1.82 1.33 3.55 2.26 5.18a150.77 150.77 0 0 0-4.2 5.48c-.44.6-.37 1.44.17 1.96l7.98 7.66c.54.52 1.38.56 1.96.09 1.73-1.37 3.48-2.83 5.34-4.45 1.66.85 3.43 1.53 5.26 2.02.24 2.24.52 4.56.87 6.91.11.74.76 1.29 1.51 1.27l11.06-.22c.75-.02 1.37-.59 1.46-1.33.26-2.4.45-4.76.59-7.05 1.77-.58 3.47-1.35 5.05-2.26 1.79 1.45 3.67 2.93 5.62 4.37.6.45 1.45.38 1.97-.17l7.66-7.98c.52-.54.56-1.39.09-1.97-1.55-1.93-3.13-3.78-4.68-5.54.8-1.59 1.45-3.27 1.93-5.03 2.35-.24 4.77-.53 7.23-.9.74-.11 1.29-.76 1.27-1.51l-.22-11.06c-.02-.75-.59-1.37-1.33-1.46-2.49-.27-4.94-.46-7.31-.61a26.17 26.17 0 0 0-2.14-4.87c1.5-1.84 3.02-3.78 4.51-5.79.45-.6.38-1.45-.17-1.97l-7.98-7.66c-.54-.52-1.39-.56-1.97-.09-1.94 1.56-3.8 3.15-5.57 4.71-1.57-.81-3.22-1.47-4.95-1.97-.28-2.58-.59-4.95-.95-7.23-.12-.74-.76-1.28-1.51-1.26l-11.06.22c-.75.02-1.37.58-1.45 1.32-.26 2.26-.47 4.6-.64 7.15-1.75.55-3.41 1.27-4.98 2.14-1.97-1.59-3.83-3.02-5.66-4.35-.6-.44-1.44-.37-1.96.17l-7.66 7.98a1.48 1.48 0 0 0-.09 1.96c1.38 1.74 2.85 3.51 4.49 5.38-.86 1.64-1.55 3.37-2.06 5.19-2.46.27-4.72.57-6.91.91-.74.12-1.28.76-1.26 1.51Zm18.31 5.16c-.18-8.89 6.88-16.25 15.78-16.43 8.89-.18 16.25 6.88 16.43 15.78.18 8.89-6.88 16.25-15.78 16.43s-16.25-6.88-16.43-15.78Z" style="fill:url(#New_Gradient_Swatch-3)"/>
        <path d="m29.44 78.71 1.08 8.56c.07.58.56 1.01 1.14 1.02 1.71.02 3.49 0 5.4-.08.6 1.36 1.33 2.65 2.18 3.83-1.03 1.61-1.96 3.12-2.81 4.6-.29.5-.17 1.15.29 1.5l6.82 5.29c.46.36 1.11.32 1.53-.09 1.23-1.2 2.47-2.48 3.78-3.9 1.36.52 2.79.9 4.25 1.13.37 1.72.78 3.5 1.24 5.29.15.57.69.94 1.27.87l8.56-1.08c.58-.07 1.02-.57 1.02-1.16 0-1.88-.04-3.73-.12-5.52 1.33-.6 2.58-1.33 3.74-2.17 1.51.98 3.09 1.97 4.72 2.93.51.3 1.15.17 1.51-.29l5.29-6.82c.36-.46.32-1.12-.1-1.54-1.36-1.37-2.74-2.67-4.09-3.91.49-1.3.86-2.66 1.09-4.06 1.8-.38 3.66-.81 5.54-1.29.57-.15.94-.69.87-1.27l-1.08-8.56c-.07-.58-.57-1.02-1.16-1.02-1.96 0-3.87.05-5.73.13a21.06 21.06 0 0 0-2.06-3.61c1.01-1.55 2.03-3.18 3.03-4.87.3-.51.17-1.15-.29-1.51l-6.82-5.29c-.46-.36-1.12-.32-1.54.1-1.38 1.37-2.69 2.76-3.94 4.11-1.28-.5-2.62-.88-4-1.12-.43-1.98-.86-3.8-1.33-5.54-.15-.56-.69-.93-1.27-.86l-8.56 1.08c-.58.07-1.01.56-1.02 1.14-.02 1.78 0 3.61.09 5.6-1.31.57-2.55 1.26-3.69 2.07-1.66-1.07-3.22-2.03-4.75-2.91a1.16 1.16 0 0 0-1.5.29l-5.29 6.82c-.36.46-.32 1.11.09 1.53 1.21 1.24 2.5 2.49 3.92 3.81-.53 1.34-.93 2.75-1.17 4.19-1.88.41-3.62.83-5.29 1.27-.56.15-.93.69-.86 1.27Zm14.64 2.51c-.87-6.89 4.01-13.18 10.9-14.05s13.18 4.01 14.05 10.9c.87 6.89-4.01 13.18-10.9 14.05-6.89.87-13.18-4.01-14.05-10.9Z" style="fill:url(#New_Gradient_Swatch-4)"/>
    </g>
    <g id="Layer_2" data-name="Layer 2">
        <g id="Group_256" data-name="Group 256">
            <path id="Path_1131" data-name="Path 1131" fill="#fff" d="M445.13 173.61h-3.21v-10.97h-3.78v-2.86h10.82v2.86h-3.83v10.97Zm11.03 0-3.15-10.15h-.13l.08 2.13v8.02h-3.13v-13.83h4.74l3.07 9.78 3.26-9.78h4.6v13.83h-3.22v-7.83l.08-2.32h-.1l-3.35 10.15h-2.74Z"/>
        </g>
    </g>
</svg>
