<svg xmlns="http://www.w3.org/2000/svg" width="24.312" height="22">
    <defs>
        <clipPath id="a">
            <path data-name="Rectangle 4" fill="#5d5d5d" d="M0 0h24.312v22H0z"/>
        </clipPath>
    </defs>
    <g data-name="Group 2" opacity=".594">
        <g data-name="Group 1" clip-path="url(#a)" fill="#5d5d5d">
            <path data-name="Path 1" d="M3.108 10.253v10.995a.754.754 0 0 0 .753.754h5.371v-9.389a.478.478 0 0 1 .478-.478h4.891a.479.479 0 0 1 .479.478v9.388h5.372a.754.754 0 0 0 .754-.754V10.253l-9.048-6.4Z"/>
            <path data-name="Path 2" d="M24.086 8.32 12.465.1a.536.536 0 0 0-.619 0l-4.04 2.857v-.989a.45.45 0 0 0-.45-.45H5.373a.45.45 0 0 0-.45.45V5L.226 8.32a.536.536 0 0 0-.126.747l.65.919a.536.536 0 0 0 .747.128L12.156 2.57l10.661 7.544a.536.536 0 0 0 .746-.128l.65-.919a.536.536 0 0 0-.128-.746"/>
        </g>
    </g>
</svg>
