<svg data-name="Group 169" xmlns="http://www.w3.org/2000/svg" width="20.089" height="19.49">
    <g data-name="Group 124">
        <path data-name="Path 1081" d="m1.167 14.309-.676 4.135 3.942-.615a10.215 10.215 0 0 0 5.611 1.661 9.9 9.9 0 0 0 10.045-9.745A9.9 9.9 0 0 0 10.044 0 9.9 9.9 0 0 0 0 9.745a9.472 9.472 0 0 0 1.167 4.564" fill="#fff"/>
        <path data-name="Path 1082" d="M10.507 12.619h-.881a.339.339 0 0 1-.336-.385 4.719 4.719 0 0 1 1.62-2.575c.741-.745 1.38-1.389 1.38-2.325a2.255 2.255 0 0 0-4.49-.3.34.34 0 0 1-.336.3h-.872a.338.338 0 0 1-.337-.37 3.8 3.8 0 0 1 7.58.37 3.613 3.613 0 0 1-.634 2.032 8.983 8.983 0 0 1-1.2 1.381 3.817 3.817 0 0 0-1.168 1.606.338.338 0 0 1-.33.265" fill="#081c52"/>
        <path data-name="Path 1083" d="M10.036 13.912a1.021 1.021 0 1 1-1.021 1.021 1.021 1.021 0 0 1 1.021-1.021" fill="#081c52"/>
    </g>
</svg>
