<svg data-name="Group 123" xmlns="http://www.w3.org/2000/svg" width="23.706" height="23">
    <g data-name="Group 124">
        <path data-name="Path 1081" d="m1.378 16.886-.8 4.879 4.652-.725A12.054 12.054 0 0 0 11.853 23a11.681 11.681 0 0 0 11.853-11.5A11.681 11.681 0 0 0 11.853 0 11.681 11.681 0 0 0 0 11.5a11.177 11.177 0 0 0 1.378 5.386" fill="#9e9e9e"/>
        <path data-name="Path 1082" d="M12.401 14.891h-1.04a.4.4 0 0 1-.4-.454 5.569 5.569 0 0 1 1.912-3.039c.874-.879 1.629-1.639 1.629-2.743a2.661 2.661 0 0 0-5.3-.35.4.4 0 0 1-.4.35H7.773a.4.4 0 0 1-.4-.437 4.483 4.483 0 0 1 8.945.437 4.263 4.263 0 0 1-.749 2.4 10.6 10.6 0 0 1-1.41 1.63 4.5 4.5 0 0 0-1.378 1.895.4.4 0 0 1-.39.313" fill="#fff"/>
        <path data-name="Path 1083" d="M11.843 16.417a1.205 1.205 0 1 1-1.205 1.205 1.205 1.205 0 0 1 1.205-1.205" fill="#fff"/>
    </g>
</svg>
