<svg xmlns="http://www.w3.org/2000/svg" width="21.019" height="21.019">
    <path data-name="Path 1106" d="m.003 10.149.419 3.319a.452.452 0 0 0 .443.4c.664.007 1.351 0 2.092-.031a8.128 8.128 0 0 0 .845 1.486c-.4.623-.759 1.208-1.091 1.782a.452.452 0 0 0 .114.583l2.643 2.051a.452.452 0 0 0 .593-.034c.477-.467.958-.963 1.466-1.51a8.131 8.131 0 0 0 1.648.44c.142.668.3 1.356.48 2.05a.451.451 0 0 0 .494.335l3.319-.419a.452.452 0 0 0 .4-.448c0-.729-.017-1.447-.045-2.14a8.141 8.141 0 0 0 1.449-.841c.586.38 1.2.764 1.831 1.137a.452.452 0 0 0 .586-.112l2.051-2.643a.452.452 0 0 0-.037-.6 49.104 49.104 0 0 0-1.584-1.517 8.14 8.14 0 0 0 .421-1.573 49.64 49.64 0 0 0 2.146-.5.452.452 0 0 0 .335-.494l-.419-3.319a.451.451 0 0 0-.448-.4c-.758 0-1.5.018-2.219.049a8.13 8.13 0 0 0-.8-1.4c.392-.6.788-1.233 1.173-1.885a.452.452 0 0 0-.112-.587l-2.643-2.05a.452.452 0 0 0-.6.037 50.72 50.72 0 0 0-1.525 1.594 8.157 8.157 0 0 0-1.552-.435 44.408 44.408 0 0 0-.514-2.145.452.452 0 0 0-.493-.332L7.55.416a.451.451 0 0 0-.4.443c-.007.688 0 1.4.033 2.171a8.146 8.146 0 0 0-1.432.8 43.773 43.773 0 0 0-1.839-1.127.453.453 0 0 0-.583.114L1.279 5.46a.452.452 0 0 0 .034.593c.47.48.969.964 1.52 1.475a8.146 8.146 0 0 0-.455 1.626c-.73.159-1.4.32-2.049.493a.453.453 0 0 0-.326.502Zm5.672.97A4.873 4.873 0 0 1 9.9 5.675 4.873 4.873 0 0 1 15.344 9.9a4.872 4.872 0 0 1-4.225 5.444 4.873 4.873 0 0 1-5.444-4.225Z" fill="#fff"/>
</svg>
